<svg version="1.1" id="Layer_1" xmlns="http://www.w3.org/2000/svg" xmlns:xlink="http://www.w3.org/1999/xlink" x="0px" y="0px"
	 width="100%" viewBox="0 0 1024 768" enable-background="new 0 0 1024 768" xml:space="preserve">
<path fill="#02052B" opacity="1.000000" stroke="none" 
	d="
M743.000000,769.000000 
	C596.977966,769.000000 450.955963,769.000000 304.495728,768.565491 
	C301.513794,754.069275 299.975586,739.733154 296.228149,725.999878 
	C286.901794,691.821594 281.182220,657.487061 284.783661,621.867615 
	C286.324768,606.625610 285.063782,591.275818 282.131592,576.113281 
	C279.133179,560.608215 275.693207,545.107483 274.103119,529.436707 
	C272.816345,516.755493 274.130280,503.823822 274.045929,491.004883 
	C273.669250,433.760620 227.747070,389.978638 170.592468,393.118591 
	C144.159317,394.570770 121.811668,405.859863 106.035194,427.323364 
	C82.039978,459.968262 87.102989,499.634155 117.687088,526.334473 
	C125.588226,533.232239 134.018845,539.555786 141.608032,546.772217 
	C159.664841,563.942139 170.641815,585.418579 178.569489,608.768127 
	C191.752625,647.596802 196.630859,687.073059 190.026535,727.846802 
	C187.827103,741.425720 187.294556,755.274536 186.000000,769.000000 
	C148.311325,769.000000 110.622643,769.000000 72.530228,768.656128 
	C76.719559,763.358948 81.252861,758.348511 85.920486,753.466431 
	C92.099167,747.003784 99.233612,741.264160 104.461784,734.119446 
	C120.070244,712.789185 118.705521,681.307251 102.077843,660.563477 
	C83.616791,637.532471 52.496330,629.005493 26.776237,639.464294 
	C16.826611,643.510254 8.718877,649.874756 1.000000,657.000000 
	C1.000000,438.446381 1.000000,219.892746 1.000000,1.000000 
	C62.021595,1.000000 123.043816,1.000000 184.308563,1.266096 
	C176.372131,6.524267 167.586441,10.760927 160.177582,16.711771 
	C152.073898,23.220716 145.254318,31.325605 137.854950,38.714771 
	C124.537498,52.013840 109.822235,63.124859 91.331863,67.906891 
	C91.641960,66.555687 92.003235,65.626122 92.277718,64.671593 
	C95.633858,53.000149 90.714943,41.501026 79.835541,35.555389 
	C70.512939,30.460552 57.748783,32.676517 50.652882,40.621750 
	C42.534752,49.711567 41.540077,61.971012 48.656937,71.706276 
	C51.147232,75.112793 54.762463,77.696930 57.497955,80.697723 
	C49.916992,83.967674 43.246407,87.935822 38.318188,94.342087 
	C34.683674,99.066650 33.578873,104.043449 36.387394,109.648064 
	C37.580044,109.299248 38.576309,109.007874 38.605427,108.999359 
	C39.678551,113.500366 40.698582,117.698639 41.675419,121.906944 
	C42.229748,124.295021 42.713314,126.699532 43.228748,129.096634 
	C42.628269,129.558395 42.027786,130.020157 41.427303,130.481903 
	C44.613140,132.037796 47.665791,134.447037 51.012928,134.969437 
	C57.692379,136.011932 64.600433,136.849213 71.296028,136.308762 
	C98.993896,134.073090 123.452766,141.092712 143.950958,160.294785 
	C151.365814,167.240814 158.465179,174.526566 165.946564,181.398102 
	C193.804916,206.985550 234.098053,206.995346 262.136841,181.567505 
	C281.675018,163.848740 291.876038,141.282471 295.523041,115.650597 
	C300.975189,77.332207 292.021179,43.329361 262.717438,16.655254 
	C255.613953,10.189221 246.298401,6.153332 238.000000,0.999997 
	C410.355347,1.000000 582.710693,1.000000 755.374268,1.295086 
	C739.017700,12.430382 729.102661,27.403519 727.715698,47.522343 
	C726.013367,72.217621 740.819763,95.156548 764.359924,104.428627 
	C785.965454,112.938744 812.560547,106.071381 826.962097,88.263542 
	C843.881470,67.342377 846.113159,41.633015 831.719971,20.668053 
	C826.661926,13.300597 819.306458,7.510378 813.000000,0.999997 
	C833.355347,1.000000 853.710693,1.000000 874.550415,1.450826 
	C875.141479,18.201773 878.791504,33.685284 886.763916,47.889797 
	C891.641785,56.580853 897.135437,64.972565 902.903564,73.108017 
	C914.915283,90.049728 921.030212,108.602211 919.303894,129.434799 
	C916.724304,160.564621 927.993774,185.492889 952.778687,204.278488 
	C974.113037,220.448822 998.520874,226.755508 1025.000000,226.000000 
	C1025.000000,355.355347 1025.000000,484.710693 1024.655762,614.432251 
	C1020.816772,607.901611 1017.483826,600.915344 1013.743591,594.154358 
	C1012.350525,591.636230 1010.005249,589.644897 1007.533020,586.758118 
	C1007.149353,589.730408 1006.939819,591.353333 1006.730286,592.976196 
	C1006.285645,593.099609 1005.840942,593.222961 1005.396240,593.346375 
	C1001.334045,588.466003 997.271851,583.585693 993.149536,578.437988 
	C992.752747,577.761902 992.416077,577.353149 991.962524,576.620178 
	C988.024231,573.874084 984.202881,571.452148 979.917053,568.735779 
	C981.941589,567.822449 983.442261,567.145447 985.920532,566.027405 
	C978.450745,561.797974 971.486816,559.680298 963.549316,559.302307 
	C962.106995,559.179138 961.049622,559.156677 959.554321,559.021240 
	C956.414246,558.999878 953.712158,559.091431 950.583252,559.143188 
	C948.463745,559.291504 946.771057,559.479736 944.718750,559.571533 
	C942.910278,559.694885 941.461365,559.914490 939.587769,560.104980 
	C937.472961,560.228088 935.782898,560.380371 933.636719,560.412476 
	C929.097900,560.306885 925.015259,560.321533 920.616211,560.248474 
	C919.863525,560.160156 919.427185,560.159607 918.635864,560.009827 
	C916.499817,559.679932 914.718628,559.499329 912.619141,559.216309 
	C911.856323,559.094788 911.411926,559.075745 910.661499,558.848755 
	C907.507690,557.831238 904.457825,557.430298 901.847961,556.139709 
	C891.860413,551.200806 882.014343,545.976013 872.060242,540.915161 
	C872.005066,540.972473 872.129944,540.874573 872.001343,540.568115 
	C869.950195,538.796143 868.027649,537.330566 866.081543,535.898010 
	C866.057922,535.931030 866.138000,535.918152 866.047363,535.664734 
	C865.649109,535.243347 865.341431,535.075378 864.928223,534.699524 
	C864.629456,534.233215 864.378235,534.057434 863.948608,533.662842 
	C862.185181,532.035706 860.542358,530.710144 858.684937,529.152100 
	C857.639526,528.283997 856.808716,527.648438 855.857971,526.713013 
	C854.519348,525.557922 853.300720,524.702698 851.922852,523.585144 
	C850.626038,522.467773 849.488342,521.612854 848.168457,520.468079 
	C846.382507,519.017456 844.824829,517.786011 843.167847,516.707031 
	C830.195190,508.259644 816.511963,501.554230 800.601196,499.485779 
	C799.862427,499.302704 799.424133,499.260773 798.611938,499.058624 
	C793.798035,498.423096 789.357971,497.947784 784.467102,497.371033 
	C779.368164,497.412018 774.720032,497.554413 769.678589,497.597870 
	C752.845032,499.107727 737.123657,503.006561 722.733093,512.092651 
	C721.988037,512.474670 721.519531,512.789734 720.703308,513.139832 
	C714.575439,517.453430 708.795288,521.732056 702.794800,526.106873 
	C702.299683,526.389343 702.102661,526.637329 701.729248,527.020935 
	C701.298157,527.387512 701.121033,527.680115 700.970825,527.984497 
	C700.997864,527.996277 700.971436,527.943604 700.722961,528.022827 
	C700.284424,528.382385 700.094299,528.662659 699.941895,528.960815 
	C699.979553,528.978760 699.931335,528.910706 699.612183,528.989746 
	C698.161194,530.360229 697.029297,531.651733 695.687256,533.041809 
	C695.214294,533.328369 695.038269,533.577515 694.696655,533.978638 
	C694.274292,534.371216 694.104065,534.673218 693.728394,535.102051 
	C693.267883,535.445618 693.103638,535.717285 692.743652,536.161987 
	C691.887878,537.107178 691.318665,537.934082 690.867004,538.878052 
	C690.984558,538.995117 690.753113,538.761902 690.475464,538.873962 
	C689.816650,539.662292 689.435547,540.338562 688.934814,541.115845 
	C688.815186,541.216858 688.706787,541.510681 688.412842,541.684814 
	C676.494629,557.072021 668.524475,573.820374 666.452148,593.403076 
	C666.281860,594.136963 666.247620,594.571655 666.069458,595.402100 
	C665.669373,600.213379 665.413330,604.628845 665.099487,609.462891 
	C665.099976,611.567627 665.158264,613.253845 665.116089,615.389038 
	C665.335144,619.647095 665.387756,623.501282 666.022461,627.257080 
	C668.219360,640.255554 671.320190,652.974670 678.927490,664.065918 
	C678.992676,664.004883 678.853271,664.116516 678.874512,664.446167 
	C679.485718,665.691223 680.075623,666.606567 680.706299,667.664551 
	C680.747070,667.807190 680.964478,668.009094 681.017944,668.354675 
	C686.024170,675.176025 690.976990,681.651733 696.016357,688.339294 
	C696.281860,688.813416 696.522217,688.994385 696.920410,689.419800 
	C702.084534,694.660889 707.152161,699.576111 712.269958,704.589539 
	C712.320190,704.687805 712.532227,704.749268 712.674316,705.029419 
	C722.643677,714.537781 730.796753,725.037964 736.972046,737.038696 
	C737.001587,737.013977 736.931152,737.043823 736.942017,737.402954 
	C737.700378,739.505127 738.447937,741.248108 739.213379,743.268433 
	C739.464722,744.040710 739.698181,744.535583 739.925781,745.338623 
	C740.119629,745.996399 740.319275,746.346008 740.524048,746.991943 
	C740.736816,747.841492 740.944458,748.394714 741.117981,749.355103 
	C741.722595,756.174744 742.361267,762.587402 743.000000,769.000000 
M679.155579,105.471992 
	C665.614502,66.456558 618.765991,52.147743 586.968811,77.315590 
	C567.746704,92.530121 559.608337,117.409035 566.497864,139.894928 
	C573.985840,164.334259 594.561096,181.070618 619.297668,182.843643 
	C660.243774,185.778549 691.126099,146.409943 679.155579,105.471992 
M89.341644,215.138000 
	C65.430313,215.037643 47.357075,225.765564 36.392704,246.522064 
	C25.222006,267.669159 26.812307,289.123749 40.718407,308.829132 
	C56.489437,331.177155 86.083771,339.361908 110.518417,328.805695 
	C135.531006,317.999817 150.483032,290.516724 145.773071,264.004578 
	C140.924011,236.709335 117.706619,216.274948 89.341644,215.138000 
M353.654938,70.671471 
	C353.635773,72.335648 353.533997,74.003593 353.609863,75.663429 
	C354.720947,99.971115 376.395050,119.141312 400.617004,117.262932 
	C424.520447,115.409256 443.687012,92.032150 440.830444,68.215393 
	C438.257751,46.765415 418.766602,29.572174 397.221649,29.747854 
	C374.420471,29.933777 355.985016,46.882214 353.654938,70.671471 
M823.851746,268.335968 
	C820.867188,271.879456 817.337830,275.097229 814.991211,279.022156 
	C804.102295,297.235199 810.827759,321.113098 829.565308,331.809937 
	C847.949951,342.305328 871.092529,335.931824 881.560242,317.490356 
	C890.936096,300.972412 887.787659,281.488342 873.525513,268.869141 
	C857.867554,255.014938 836.154602,257.520569 823.851746,268.335968 
M613.579468,603.718750 
	C601.502136,599.669861 591.120239,602.676636 582.959717,612.092712 
	C575.643799,620.534241 574.486816,630.622314 579.232117,640.546936 
	C584.182556,650.900513 592.941101,656.709900 604.678162,656.822693 
	C616.925110,656.940430 628.266296,647.335449 631.067993,634.992554 
	C633.962036,622.242310 627.555420,610.373169 613.579468,603.718750 
M804.252258,198.764847 
	C817.102356,196.787552 825.162354,186.114471 822.646301,174.407593 
	C820.148254,162.784744 808.574341,155.773499 797.122864,158.945999 
	C787.803650,161.527802 781.670837,170.893951 782.779968,180.850693 
	C783.925964,191.138840 791.954224,198.110504 804.252258,198.764847 
M53.465893,397.231415 
	C64.399551,400.687561 75.670975,394.651672 78.449142,383.852814 
	C81.167343,373.287018 73.941116,362.334351 62.989693,360.421204 
	C53.971123,358.845734 44.877811,364.705475 41.808533,374.070374 
	C38.763454,383.361450 42.915485,392.060699 53.465893,397.231415 
z"/>
<path fill="#7B39DA" opacity="1.000000" stroke="none" 
	d="
M696.823792,689.093872 
	C696.522217,688.994385 696.281860,688.813416 696.022644,687.969849 
	C691.558167,681.159607 687.192017,674.917542 682.751404,668.728821 
	C682.435303,668.288330 681.572876,668.239868 680.964478,668.009094 
	C680.964478,668.009094 680.747070,667.807190 680.759399,667.294006 
	C680.132202,665.892761 679.492737,665.004639 678.853271,664.116516 
	C678.853271,664.116516 678.992676,664.004883 678.959961,663.668640 
	C677.115906,658.582947 674.814270,653.955505 673.595276,649.058655 
	C671.060608,638.876221 669.129517,628.544312 666.862000,618.293457 
	C666.600708,617.112122 665.778564,616.054810 665.216553,614.940002 
	C665.158264,613.253845 665.099976,611.567627 665.421631,609.266968 
	C665.938782,604.103760 666.076111,599.554993 666.213379,595.006287 
	C666.247620,594.571655 666.281860,594.136963 666.706116,593.185181 
	C667.318665,592.225952 667.646606,591.806702 667.748596,591.338318 
	C671.348450,574.803162 677.407288,559.352539 687.581177,545.657166 
	C688.376221,544.586914 688.350830,542.907166 688.706787,541.510681 
	C688.706787,541.510681 688.815186,541.216858 689.231812,541.019897 
	C690.016663,540.135864 690.384888,539.448914 690.753113,538.761902 
	C690.753113,538.761902 690.984558,538.995117 691.201599,538.847046 
	C691.955811,537.813843 692.492920,536.928833 693.030090,536.043762 
	C693.103638,535.717285 693.267883,535.445618 693.948120,534.972595 
	C694.565186,534.440247 694.757080,534.164124 694.948914,533.888000 
	C695.038269,533.577515 695.214294,533.328369 696.044189,533.032166 
	C697.718079,531.586182 698.824707,530.248413 699.931335,528.910706 
	C699.931335,528.910706 699.979553,528.978760 700.171265,528.855347 
	C700.565796,528.469238 700.768616,528.206421 700.971436,527.943604 
	C700.971436,527.943604 700.997864,527.996277 701.193481,527.868774 
	C701.587158,527.476562 701.785217,527.211792 701.983276,526.947021 
	C702.102661,526.637329 702.299683,526.389343 703.155396,526.101318 
	C708.315002,523.196716 712.985046,520.528381 717.421875,517.516541 
	C718.933350,516.490540 719.858154,514.600220 721.051025,513.104858 
	C721.519531,512.789734 721.988037,512.474670 722.998840,512.273071 
	C724.598633,512.152527 725.698547,512.034546 726.706848,511.665802 
	C734.846191,508.688782 742.892151,505.432892 751.120483,502.730591 
	C757.320007,500.694611 763.746460,499.349487 770.071899,497.696838 
	C774.720032,497.554413 779.368164,497.412018 784.682190,497.655304 
	C789.893982,498.433594 794.439941,498.826202 798.985840,499.218811 
	C799.424133,499.260773 799.862427,499.302704 800.786987,499.740845 
	C803.840942,501.240021 806.340576,502.554352 808.988586,503.408478 
	C819.200562,506.702393 829.436157,509.790161 838.325500,516.240540 
	C841.230347,518.348450 844.984802,519.285400 848.350708,520.757874 
	C849.488342,521.612854 850.626038,522.467773 851.976440,523.934082 
	C853.452148,525.367859 854.715027,526.190430 855.977905,527.012939 
	C856.808716,527.648438 857.639526,528.283997 858.720337,529.493591 
	C860.669983,531.366577 862.369629,532.665466 864.069214,533.964417 
	C864.378235,534.057434 864.629456,534.233215 865.055420,534.923889 
	C865.571350,535.543457 865.854675,535.730774 866.138000,535.918152 
	C866.138000,535.918152 866.057922,535.931030 866.114868,536.252319 
	C868.157837,538.007263 870.143860,539.440918 872.129944,540.874573 
	C872.129944,540.874573 872.005066,540.972473 872.091309,541.264221 
	C874.284668,543.846619 876.040344,546.689453 878.577576,548.304443 
	C882.877747,551.041626 887.478516,553.616150 892.306396,555.136597 
	C898.339844,557.036682 904.730896,557.801636 910.967529,559.056702 
	C911.411926,559.075745 911.856323,559.094788 912.781311,559.507935 
	C915.171570,559.987732 917.081177,560.073425 918.990845,560.159119 
	C919.427185,560.159607 919.863525,560.160156 920.824341,560.554810 
	C925.596802,560.810242 929.844849,560.671448 934.092896,560.532654 
	C935.782898,560.380371 937.472961,560.228088 939.853882,560.286255 
	C942.056030,560.220398 943.567200,559.944153 945.078430,559.667908 
	C946.771057,559.479736 948.463745,559.291504 950.918823,559.330383 
	C954.451599,559.416382 957.221924,559.275269 959.992249,559.134216 
	C961.049622,559.156677 962.106995,559.179138 963.734802,559.588135 
	C969.091492,561.697144 973.877747,563.419556 977.398315,564.686584 
	C977.920105,567.476685 977.672974,570.295227 978.688843,570.866150 
	C982.946350,573.258911 987.582214,574.978271 992.079468,576.944336 
	C992.416077,577.353149 992.752747,577.761902 993.126038,578.817261 
	C997.312317,584.872864 1001.386536,590.343689 1005.704712,595.614624 
	C1006.257385,596.289246 1008.125610,595.757324 1009.303467,596.079834 
	C1010.887390,596.513733 1013.204712,596.802979 1013.792114,597.907166 
	C1016.416504,602.840088 1018.418274,608.099792 1020.897156,613.116760 
	C1021.944458,615.236145 1023.613586,617.048218 1025.000000,619.000000 
	C1025.000000,623.689270 1025.000000,628.378479 1024.628784,633.463745 
	C1019.946106,632.584351 1015.640076,631.289978 1011.322205,630.036560 
	C989.419067,623.678284 967.230774,623.242188 945.090027,628.025146 
	C923.473694,632.694885 903.948364,641.993469 886.799561,656.276367 
	C870.229126,670.077637 857.702759,686.863586 848.635620,706.249817 
	C839.348633,726.106201 836.127747,747.201721 837.000000,769.000000 
	C806.979126,769.000000 776.958191,769.000000 746.439636,768.590820 
	C745.193665,763.464355 744.597473,758.715271 743.620117,754.045959 
	C743.244812,752.252991 742.000427,750.641968 741.152100,748.947998 
	C740.944458,748.394714 740.736816,747.841492 740.518555,746.684570 
	C740.315796,745.730835 740.123718,745.380676 739.931641,745.030518 
	C739.698181,744.535583 739.464722,744.040710 739.361694,742.983887 
	C738.638489,740.629272 737.784790,738.836548 736.931152,737.043823 
	C736.931152,737.043823 737.001587,737.013977 737.004517,736.633423 
	C736.537170,734.353455 736.584656,732.071411 735.510681,730.618164 
	C729.555542,722.559937 723.406433,714.639709 717.108643,706.846069 
	C716.164307,705.677490 714.085999,705.425354 712.532227,704.749268 
	C712.532227,704.749268 712.320190,704.687805 712.419556,704.222534 
	C708.939575,697.100952 702.800964,693.183777 696.823792,689.093872 
z"/>
<path fill="#F23CCE" opacity="1.000000" stroke="none" 
	d="
M186.468658,769.000000 
	C187.294556,755.274536 187.827103,741.425720 190.026535,727.846802 
	C196.630859,687.073059 191.752625,647.596802 178.569489,608.768127 
	C170.641815,585.418579 159.664841,563.942139 141.608032,546.772217 
	C134.018845,539.555786 125.588226,533.232239 117.687088,526.334473 
	C87.102989,499.634155 82.039978,459.968262 106.035194,427.323364 
	C121.811668,405.859863 144.159317,394.570770 170.592468,393.118591 
	C227.747070,389.978638 273.669250,433.760620 274.045929,491.004883 
	C274.130280,503.823822 272.816345,516.755493 274.103119,529.436707 
	C275.693207,545.107483 279.133179,560.608215 282.131592,576.113281 
	C285.063782,591.275818 286.324768,606.625610 284.783661,621.867615 
	C281.182220,657.487061 286.901794,691.821594 296.228149,725.999878 
	C299.975586,739.733154 301.513794,754.069275 304.028748,768.565491 
	C264.979095,769.000000 225.958206,769.000000 186.468658,769.000000 
z"/>
<path fill="#3578E2" opacity="1.000000" stroke="none" 
	d="
M237.531342,0.999997 
	C246.298401,6.153332 255.613953,10.189221 262.717438,16.655254 
	C292.021179,43.329361 300.975189,77.332207 295.523041,115.650597 
	C291.876038,141.282471 281.675018,163.848740 262.136841,181.567505 
	C234.098053,206.995346 193.804916,206.985550 165.946564,181.398102 
	C158.465179,174.526566 151.365814,167.240814 143.950958,160.294785 
	C123.452766,141.092712 98.993896,134.073090 71.296028,136.308762 
	C64.600433,136.849213 57.692379,136.011932 51.012928,134.969437 
	C47.665791,134.447037 44.613140,132.037796 41.427303,130.481903 
	C42.027786,130.020157 42.628269,129.558395 43.228748,129.096634 
	C42.713314,126.699532 42.229748,124.295021 41.675419,121.906944 
	C40.698582,117.698639 39.678551,113.500366 38.605427,108.999359 
	C38.576309,109.007874 37.580044,109.299248 36.387394,109.648064 
	C33.578873,104.043449 34.683674,99.066650 38.318188,94.342087 
	C43.246407,87.935822 49.916992,83.967674 57.904327,80.716415 
	C74.578484,84.775330 81.903114,82.000046 91.342712,68.316925 
	C109.822235,63.124859 124.537498,52.013840 137.854950,38.714771 
	C145.254318,31.325605 152.073898,23.220716 160.177582,16.711771 
	C167.586441,10.760927 176.372131,6.524267 184.775543,1.266096 
	C202.354233,1.000000 219.708450,1.000000 237.531342,0.999997 
z"/>
<path fill="#FD7613" opacity="1.000000" stroke="none" 
	d="
M1025.000000,225.531342 
	C998.520874,226.755508 974.113037,220.448822 952.778687,204.278488 
	C927.993774,185.492889 916.724304,160.564621 919.303894,129.434799 
	C921.030212,108.602211 914.915283,90.049728 902.903564,73.108017 
	C897.135437,64.972565 891.641785,56.580853 886.763916,47.889797 
	C878.791504,33.685284 875.141479,18.201773 875.017334,1.450826 
	C924.941589,1.000000 974.883240,1.000000 1025.000000,1.000000 
	C1025.000000,75.687469 1025.000000,150.375076 1025.000000,225.531342 
z"/>
<path fill="#FA4458" opacity="1.000000" stroke="none" 
	d="
M837.468628,769.000000 
	C836.127747,747.201721 839.348633,726.106201 848.635620,706.249817 
	C857.702759,686.863586 870.229126,670.077637 886.799561,656.276367 
	C903.948364,641.993469 923.473694,632.694885 945.090027,628.025146 
	C967.230774,623.242188 989.419067,623.678284 1011.322205,630.036560 
	C1015.640076,631.289978 1019.946106,632.584351 1024.628784,633.929932 
	C1025.000000,678.938965 1025.000000,723.877991 1025.000000,769.000000 
	C962.645874,769.000000 900.291626,769.000000 837.468628,769.000000 
z"/>
<path fill="#7B39DA" opacity="1.000000" stroke="none" 
	d="
M1.000000,657.468628 
	C8.718877,649.874756 16.826611,643.510254 26.776237,639.464294 
	C52.496330,629.005493 83.616791,637.532471 102.077843,660.563477 
	C118.705521,681.307251 120.070244,712.789185 104.461784,734.119446 
	C99.233612,741.264160 92.099167,747.003784 85.920486,753.466431 
	C81.252861,758.348511 76.719559,763.358948 72.063240,768.656128 
	C48.390041,769.000000 24.780085,769.000000 1.000000,769.000000 
	C1.000000,731.979309 1.000000,694.958313 1.000000,657.468628 
z"/>
<path fill="#EA3ACE" opacity="1.000000" stroke="none" 
	d="
M812.531372,0.999997 
	C819.306458,7.510378 826.661926,13.300597 831.719971,20.668053 
	C846.113159,41.633015 843.881470,67.342377 826.962097,88.263542 
	C812.560547,106.071381 785.965454,112.938744 764.359924,104.428627 
	C740.819763,95.156548 726.013367,72.217621 727.715698,47.522343 
	C729.102661,27.403519 739.017700,12.430382 755.841248,1.295086 
	C774.687561,1.000000 793.375122,1.000000 812.531372,0.999997 
z"/>
<path fill="#6237B2" opacity="1.000000" stroke="none" 
	d="
M1025.000000,618.600037 
	C1023.613586,617.048218 1021.944458,615.236145 1020.897156,613.116760 
	C1018.418274,608.099792 1016.416504,602.840088 1013.792114,597.907166 
	C1013.204712,596.802979 1010.887390,596.513733 1009.303467,596.079834 
	C1008.125610,595.757324 1006.257385,596.289246 1005.704712,595.614624 
	C1001.386536,590.343689 997.312317,584.872864 993.186157,579.084534 
	C997.271851,583.585693 1001.334045,588.466003 1005.396240,593.346375 
	C1005.840942,593.222961 1006.285645,593.099609 1006.730286,592.976196 
	C1006.939819,591.353333 1007.149353,589.730408 1007.533020,586.758118 
	C1010.005249,589.644897 1012.350525,591.636230 1013.743591,594.154358 
	C1017.483826,600.915344 1020.816772,607.901611 1024.655762,614.899170 
	C1025.000000,616.066711 1025.000000,617.133362 1025.000000,618.600037 
z"/>
<path fill="#6237B2" opacity="1.000000" stroke="none" 
	d="
M741.117981,749.355103 
	C742.000427,750.641968 743.244812,752.252991 743.620117,754.045959 
	C744.597473,758.715271 745.193665,763.464355 745.970947,768.590820 
	C745.250000,769.000000 744.500000,769.000000 743.375000,769.000000 
	C742.361267,762.587402 741.722595,756.174744 741.117981,749.355103 
z"/>
<path fill="#FB7417" opacity="1.000000" stroke="none" 
	d="
M679.273987,105.853638 
	C691.126099,146.409943 660.243774,185.778549 619.297668,182.843643 
	C594.561096,181.070618 573.985840,164.334259 566.497864,139.894928 
	C559.608337,117.409035 567.746704,92.530121 586.968811,77.315590 
	C618.765991,52.147743 665.614502,66.456558 679.273987,105.853638 
z"/>
<path fill="#EA3BCE" opacity="1.000000" stroke="none" 
	d="
M89.801796,215.142700 
	C117.706619,216.274948 140.924011,236.709335 145.773071,264.004578 
	C150.483032,290.516724 135.531006,317.999817 110.518417,328.805695 
	C86.083771,339.361908 56.489437,331.177155 40.718407,308.829132 
	C26.812307,289.123749 25.222006,267.669159 36.392704,246.522064 
	C47.357075,225.765564 65.430313,215.037643 89.801796,215.142700 
z"/>
<path fill="#7C3ADA" opacity="1.000000" stroke="none" 
	d="
M353.690002,70.203720 
	C355.985016,46.882214 374.420471,29.933777 397.221649,29.747854 
	C418.766602,29.572174 438.257751,46.765415 440.830444,68.215393 
	C443.687012,92.032150 424.520447,115.409256 400.617004,117.262932 
	C376.395050,119.141312 354.720947,99.971115 353.609863,75.663429 
	C353.533997,74.003593 353.635773,72.335648 353.690002,70.203720 
z"/>
<path fill="#F97517" opacity="1.000000" stroke="none" 
	d="
M824.118042,268.095856 
	C836.154602,257.520569 857.867554,255.014938 873.525513,268.869141 
	C887.787659,281.488342 890.936096,300.972412 881.560242,317.490356 
	C871.092529,335.931824 847.949951,342.305328 829.565308,331.809937 
	C810.827759,321.113098 804.102295,297.235199 814.991211,279.022156 
	C817.337830,275.097229 820.867188,271.879456 824.118042,268.095856 
z"/>
<path fill="#F5721C" opacity="1.000000" stroke="none" 
	d="
M613.950684,603.843445 
	C627.555420,610.373169 633.962036,622.242310 631.067993,634.992554 
	C628.266296,647.335449 616.925110,656.940430 604.678162,656.822693 
	C592.941101,656.709900 584.182556,650.900513 579.232117,640.546936 
	C574.486816,630.622314 575.643799,620.534241 582.959717,612.092712 
	C591.120239,602.676636 601.502136,599.669861 613.950684,603.843445 
z"/>
<path fill="#EB3DCC" opacity="1.000000" stroke="none" 
	d="
M91.331863,67.906891 
	C81.903114,82.000046 74.578484,84.775330 58.270363,80.675308 
	C54.762463,77.696930 51.147232,75.112793 48.656937,71.706276 
	C41.540077,61.971012 42.534752,49.711567 50.652882,40.621750 
	C57.748783,32.676517 70.512939,30.460552 79.835541,35.555389 
	C90.714943,41.501026 95.633858,53.000149 92.277718,64.671593 
	C92.003235,65.626122 91.641960,66.555687 91.331863,67.906891 
z"/>
<path fill="#F04A58" opacity="1.000000" stroke="none" 
	d="
M803.834412,198.768158 
	C791.954224,198.110504 783.925964,191.138840 782.779968,180.850693 
	C781.670837,170.893951 787.803650,161.527802 797.122864,158.945999 
	C808.574341,155.773499 820.148254,162.784744 822.646301,174.407593 
	C825.162354,186.114471 817.102356,196.787552 803.834412,198.768158 
z"/>
<path fill="#7A3AD6" opacity="1.000000" stroke="none" 
	d="
M53.103142,397.103027 
	C42.915485,392.060699 38.763454,383.361450 41.808533,374.070374 
	C44.877811,364.705475 53.971123,358.845734 62.989693,360.421204 
	C73.941116,362.334351 81.167343,373.287018 78.449142,383.852814 
	C75.670975,394.651672 64.399551,400.687561 53.103142,397.103027 
z"/>
<path fill="#6237B2" opacity="1.000000" stroke="none" 
	d="
M848.168457,520.468079 
	C844.984802,519.285400 841.230347,518.348450 838.325500,516.240540 
	C829.436157,509.790161 819.200562,506.702393 808.988586,503.408478 
	C806.340576,502.554352 803.840942,501.240021 801.087402,499.882019 
	C816.511963,501.554230 830.195190,508.259644 843.167847,516.707031 
	C844.824829,517.786011 846.382507,519.017456 848.168457,520.468079 
z"/>
<path fill="#6237B2" opacity="1.000000" stroke="none" 
	d="
M688.412842,541.684814 
	C688.350830,542.907166 688.376221,544.586914 687.581177,545.657166 
	C677.407288,559.352539 671.348450,574.803162 667.748596,591.338318 
	C667.646606,591.806702 667.318665,592.225952 666.842163,592.885986 
	C668.524475,573.820374 676.494629,557.072021 688.412842,541.684814 
z"/>
<path fill="#6237B2" opacity="1.000000" stroke="none" 
	d="
M769.678589,497.597900 
	C763.746460,499.349487 757.320007,500.694611 751.120483,502.730591 
	C742.892151,505.432892 734.846191,508.688782 726.706848,511.665802 
	C725.698547,512.034546 724.598633,512.152527 723.275391,512.206177 
	C737.123657,503.006561 752.845032,499.107727 769.678589,497.597900 
z"/>
<path fill="#6237B2" opacity="1.000000" stroke="none" 
	d="
M665.116089,615.389038 
	C665.778564,616.054810 666.600708,617.112122 666.862000,618.293457 
	C669.129517,628.544312 671.060608,638.876221 673.595276,649.058655 
	C674.814270,653.955505 677.115906,658.582947 678.894775,663.729675 
	C671.320190,652.974670 668.219360,640.255554 666.022461,627.257080 
	C665.387756,623.501282 665.335144,619.647095 665.116089,615.389038 
z"/>
<path fill="#6237B2" opacity="1.000000" stroke="none" 
	d="
M910.661499,558.848755 
	C904.730896,557.801636 898.339844,557.036682 892.306396,555.136597 
	C887.478516,553.616150 882.877747,551.041626 878.577576,548.304443 
	C876.040344,546.689453 874.284668,543.846619 872.146484,541.206909 
	C882.014343,545.976013 891.860413,551.200806 901.847961,556.139709 
	C904.457825,557.430298 907.507690,557.831238 910.661499,558.848755 
z"/>
<path fill="#6237B2" opacity="1.000000" stroke="none" 
	d="
M991.962524,576.620178 
	C987.582214,574.978271 982.946350,573.258911 978.688843,570.866150 
	C977.672974,570.295227 977.920105,567.476685 977.398315,564.686584 
	C973.877747,563.419556 969.091492,561.697144 964.119751,559.688843 
	C971.486816,559.680298 978.450745,561.797974 985.920532,566.027405 
	C983.442261,567.145447 981.941589,567.822449 979.917053,568.735779 
	C984.202881,571.452148 988.024231,573.874084 991.962524,576.620178 
z"/>
<path fill="#6237B2" opacity="1.000000" stroke="none" 
	d="
M712.674316,705.029419 
	C714.085999,705.425354 716.164307,705.677490 717.108643,706.846069 
	C723.406433,714.639709 729.555542,722.559937 735.510681,730.618164 
	C736.584656,732.071411 736.537170,734.353455 736.974915,736.658081 
	C730.796753,725.037964 722.643677,714.537781 712.674316,705.029419 
z"/>
<path fill="#6237B2" opacity="1.000000" stroke="none" 
	d="
M681.017944,668.354675 
	C681.572876,668.239868 682.435303,668.288330 682.751404,668.728821 
	C687.192017,674.917542 691.558167,681.159607 695.936157,687.758057 
	C690.976990,681.651733 686.024170,675.176025 681.017944,668.354675 
z"/>
<path fill="#6237B2" opacity="1.000000" stroke="none" 
	d="
M696.920410,689.419800 
	C702.800964,693.183777 708.939575,697.100952 712.369385,704.124268 
	C707.152161,699.576111 702.084534,694.660889 696.920410,689.419800 
z"/>
<path fill="#6237B2" opacity="1.000000" stroke="none" 
	d="
M720.703308,513.139832 
	C719.858154,514.600220 718.933350,516.490540 717.421875,517.516541 
	C712.985046,520.528381 708.315002,523.196716 703.375732,526.005127 
	C708.795288,521.732056 714.575439,517.453430 720.703308,513.139832 
z"/>
<path fill="#6237B2" opacity="1.000000" stroke="none" 
	d="
M933.636719,560.412476 
	C929.844849,560.671448 925.596802,560.810242 921.140686,560.642578 
	C925.015259,560.321533 929.097900,560.306885 933.636719,560.412476 
z"/>
<path fill="#6237B2" opacity="1.000000" stroke="none" 
	d="
M666.069458,595.402100 
	C666.076111,599.554993 665.938782,604.103760 665.479370,608.848389 
	C665.413330,604.628845 665.669373,600.213379 666.069458,595.402100 
z"/>
<path fill="#6237B2" opacity="1.000000" stroke="none" 
	d="
M798.611938,499.058594 
	C794.439941,498.826202 789.893982,498.433594 785.132996,497.756714 
	C789.357971,497.947784 793.798035,498.423096 798.611938,499.058594 
z"/>
<path fill="#6237B2" opacity="1.000000" stroke="none" 
	d="
M872.001343,540.568115 
	C870.143860,539.440918 868.157837,538.007263 866.138428,536.219299 
	C868.027649,537.330566 869.950195,538.796143 872.001343,540.568115 
z"/>
<path fill="#6237B2" opacity="1.000000" stroke="none" 
	d="
M863.948608,533.662842 
	C862.369629,532.665466 860.669983,531.366577 858.934998,529.726074 
	C860.542358,530.710144 862.185181,532.035706 863.948608,533.662842 
z"/>
<path fill="#6237B2" opacity="1.000000" stroke="none" 
	d="
M736.942017,737.402954 
	C737.784790,738.836548 738.638489,740.629272 739.343811,742.706543 
	C738.447937,741.248108 737.700378,739.505127 736.942017,737.402954 
z"/>
<path fill="#6237B2" opacity="1.000000" stroke="none" 
	d="
M699.612183,528.989746 
	C698.824707,530.248413 697.718079,531.586182 696.254456,532.933533 
	C697.029297,531.651733 698.161194,530.360229 699.612183,528.989746 
z"/>
<path fill="#6237B2" opacity="1.000000" stroke="none" 
	d="
M918.635864,560.009827 
	C917.081177,560.073425 915.171570,559.987732 913.099731,559.610352 
	C914.718628,559.499329 916.499817,559.679932 918.635864,560.009827 
z"/>
<path fill="#6237B2" opacity="1.000000" stroke="none" 
	d="
M944.718750,559.571533 
	C943.567200,559.944153 942.056030,560.220398 940.278687,560.315430 
	C941.461365,559.914490 942.910278,559.694885 944.718750,559.571533 
z"/>
<path fill="#6237B2" opacity="1.000000" stroke="none" 
	d="
M959.554321,559.021240 
	C957.221924,559.275269 954.451599,559.416382 951.345703,559.370239 
	C953.712158,559.091431 956.414246,558.999878 959.554321,559.021240 
z"/>
<path fill="#6237B2" opacity="1.000000" stroke="none" 
	d="
M855.857971,526.713013 
	C854.715027,526.190430 853.452148,525.367859 852.135620,524.196411 
	C853.300720,524.702698 854.519348,525.557922 855.857971,526.713013 
z"/>
<path fill="#6237B2" opacity="1.000000" stroke="none" 
	d="
M692.743652,536.161987 
	C692.492920,536.928833 691.955811,537.813843 691.084045,538.729980 
	C691.318665,537.934082 691.887878,537.107178 692.743652,536.161987 
z"/>
<path fill="#6237B2" opacity="1.000000" stroke="none" 
	d="
M678.874512,664.446167 
	C679.492737,665.004639 680.132202,665.892761 680.718628,667.151367 
	C680.075623,666.606567 679.485718,665.691223 678.874512,664.446167 
z"/>
<path fill="#6237B2" opacity="1.000000" stroke="none" 
	d="
M690.475464,538.873962 
	C690.384888,539.448914 690.016663,540.135864 689.351440,540.918823 
	C689.435547,540.338562 689.816650,539.662292 690.475464,538.873962 
z"/>
<path fill="#6237B2" opacity="1.000000" stroke="none" 
	d="
M694.696655,533.978638 
	C694.757080,534.164124 694.565186,534.440247 694.153564,534.845825 
	C694.104065,534.673218 694.274292,534.371216 694.696655,533.978638 
z"/>
<path fill="#6237B2" opacity="1.000000" stroke="none" 
	d="
M866.047363,535.664734 
	C865.854675,535.730774 865.571350,535.543457 865.160889,535.131714 
	C865.341431,535.075378 865.649109,535.243347 866.047363,535.664734 
z"/>
<path fill="#6237B2" opacity="1.000000" stroke="none" 
	d="
M700.722961,528.022827 
	C700.768616,528.206421 700.565796,528.469238 700.133606,528.837463 
	C700.094299,528.662659 700.284424,528.382385 700.722961,528.022827 
z"/>
<path fill="#6237B2" opacity="1.000000" stroke="none" 
	d="
M701.729248,527.020935 
	C701.785217,527.211792 701.587158,527.476562 701.166504,527.857056 
	C701.121033,527.680115 701.298157,527.387512 701.729248,527.020935 
z"/>
<path fill="#6237B2" opacity="1.000000" stroke="none" 
	d="
M739.925781,745.338623 
	C740.123718,745.380676 740.315796,745.730835 740.513367,746.388306 
	C740.319275,746.346008 740.119629,745.996399 739.925781,745.338623 
z"/>
</svg>